<svg width="24" height="24" viewBox="0 0 24 24" fill="none" xmlns="http://www.w3.org/2000/svg">
<g clip-path="url(#clip0_4018_12769)">
<path d="M12 24C18.6274 24 24 18.6274 24 12C24 5.37258 18.6274 0 12 0C5.37258 0 0 5.37258 0 12C0 18.6274 5.37258 24 12 24Z" fill="#FCFCFC"/>
<path d="M4.95669 11.1273L3.65234 8.76091L4.95669 6.43164L6.26103 8.76091L4.95669 11.1273Z" fill="#A2001D"/>
<path d="M2.34804 11.1273L1.0437 8.76091L2.34804 6.43164L3.65239 8.76091L2.34804 11.1273Z" fill="#A2001D"/>
<path d="M4.95669 17.5628L3.65234 15.1965L4.95669 12.8672L6.26103 15.1965L4.95669 17.5628Z" fill="#A2001D"/>
<path d="M2.34804 17.5628L1.0437 15.1965L2.34804 12.8672L3.65239 15.1965L2.34804 17.5628Z" fill="#A2001D"/>
<path d="M6.26114 2.32741L5.89186 1.66797C5.22951 2.06041 4.60828 2.51477 4.03589 3.02308L4.95679 4.69375L6.26114 2.32741Z" fill="#A2001D"/>
<path d="M4.95678 19.3027L4.02612 20.9647C4.598 21.4737 5.21881 21.9288 5.88087 22.322L6.26117 21.632L4.95678 19.3027Z" fill="#A2001D"/>
<path d="M7.30444 15.1309V23.0463C8.74674 23.6602 10.3336 24.0004 12.0001 24.0004C17.1597 24.0004 21.5582 20.7439 23.2537 16.1743L7.30444 15.1309Z" fill="#6DA544"/>
<path d="M23.2537 16.1739C23.7361 14.8739 24.0001 13.4678 24.0001 12C24.0001 5.37263 18.6275 0 12.0001 0C10.3337 0 8.74674 0.339984 7.30444 0.953813V16.1739H23.2537V16.1739Z" fill="#A2001D"/>
</g>
<defs>
<clipPath id="clip0_4018_12769">
<rect width="24" height="24" fill="white"/>
</clipPath>
</defs>
</svg>
