<svg width="24" height="24" viewBox="0 0 24 24" fill="none" xmlns="http://www.w3.org/2000/svg">
<g clip-path="url(#clip0_4018_13752)">
<path d="M12 24C18.6274 24 24 18.6274 24 12C24 5.37258 18.6274 0 12 0C5.37258 0 0 5.37258 0 12C0 18.6274 5.37258 24 12 24Z" fill="#0052B4"/>
<path d="M12.0003 4.69727L12.3888 5.893H13.646L12.6289 6.63198L13.0174 7.82772L12.0003 7.08869L10.9831 7.82772L11.3716 6.63198L10.3545 5.893H11.6117L12.0003 4.69727Z" fill="#FFDA44"/>
<path d="M6.83474 6.83772L7.95506 7.40847L8.84404 6.51953L8.6473 7.76125L9.76757 8.33205L8.5258 8.52873L8.32912 9.77055L7.75832 8.65028L6.5166 8.84702L7.40559 7.95803L6.83474 6.83772Z" fill="#FFDA44"/>
<path d="M4.6958 12.0013L5.89153 11.6127V10.3555L6.63047 11.3727L7.82625 10.9841L7.08718 12.0013L7.82625 13.0184L6.63047 12.6299L5.89153 13.647V12.3898L4.6958 12.0013Z" fill="#FFDA44"/>
<path d="M6.83474 17.1652L7.40554 16.0449L6.5166 15.1559L7.75837 15.3527L8.32907 14.2324L8.5258 15.4742L9.76752 15.6709L8.6474 16.2417L8.84404 17.4834L7.95506 16.5944L6.83474 17.1652Z" fill="#FFDA44"/>
<path d="M12.0003 19.3061L11.6117 18.1104H10.3545L11.3717 17.3714L10.9831 16.1758L12.0003 16.9147L13.0174 16.1758L12.6289 17.3714L13.646 18.1104H12.3888L12.0003 19.3061Z" fill="#FFDA44"/>
<path d="M17.1652 17.1652L16.0449 16.5945L15.1559 17.4834L15.3526 16.2416L14.2324 15.6709L15.4741 15.4742L15.6708 14.2324L16.2416 15.3527L17.4833 15.1559L16.5943 16.045L17.1652 17.1652Z" fill="#FFDA44"/>
<path d="M19.3042 12.0013L18.1085 12.3898V13.647L17.3695 12.6298L16.1738 13.0184L16.9128 12.0013L16.1738 10.9841L17.3695 11.3727L18.1085 10.3555V11.6128L19.3042 12.0013Z" fill="#FFDA44"/>
<path d="M17.1652 6.83767L16.5944 7.95798L17.4833 8.84697L16.2415 8.65019L15.6708 9.77045L15.4741 8.52869L14.2324 8.33195L15.3526 7.7612L15.1559 6.51953L16.0449 7.40847L17.1652 6.83767Z" fill="#FFDA44"/>
</g>
<defs>
<clipPath id="clip0_4018_13752">
<rect width="24" height="24" fill="white"/>
</clipPath>
</defs>
</svg>
