<svg width="24" height="24" viewBox="0 0 24 24" fill="none" xmlns="http://www.w3.org/2000/svg">
<g clip-path="url(#clip0_4018_24681)">
<path d="M12 24C18.6274 24 24 18.6274 24 12C24 5.37258 18.6274 0 12 0C5.37258 0 0 5.37258 0 12C0 18.6274 5.37258 24 12 24Z" fill="#F0F0F0"/>
<path d="M16.1735 12.0001C16.1735 13.0435 14.3047 15.6522 11.9996 15.6522C9.6944 15.6522 7.82568 13.0435 7.82568 12.0001C7.82568 9.69484 9.6944 7.82617 11.9996 7.82617C14.3047 7.82617 16.1735 9.69484 16.1735 12.0001Z" fill="#D80027"/>
<path d="M16.1735 12C16.1735 14.3052 14.3047 16.1739 11.9996 16.1739C9.6944 16.1739 7.82568 14.3052 7.82568 12" fill="#0052B4"/>
<path d="M16.4238 15.6895L17.5304 14.5829L18.2682 15.3206L17.1616 16.4272L16.4238 15.6895Z" fill="black"/>
<path d="M14.5786 17.5352L15.6852 16.4286L16.423 17.1663L15.3164 18.2729L14.5786 17.5352Z" fill="black"/>
<path d="M18.6367 17.9023L19.7433 16.7957L20.4811 17.5335L19.3745 18.6401L18.6367 17.9023Z" fill="black"/>
<path d="M16.7925 19.748L17.8991 18.6414L18.6368 19.3792L17.5302 20.4858L16.7925 19.748Z" fill="black"/>
<path d="M17.5303 16.7969L18.6369 15.6903L19.3746 16.428L18.268 17.5346L17.5303 16.7969Z" fill="black"/>
<path d="M15.6855 18.6406L16.7921 17.534L17.5299 18.2718L16.4233 19.3784L15.6855 18.6406Z" fill="black"/>
<path d="M18.6416 8.3125L15.6907 5.36156L16.4284 4.62382L19.3793 7.57476L18.6416 8.3125Z" fill="black"/>
<path d="M15.6904 7.57422L14.5838 6.46762L15.3215 5.72991L16.4281 6.83651L15.6904 7.57422Z" fill="black"/>
<path d="M17.5347 9.41992L16.4281 8.31332L17.1658 7.57561L18.2724 8.68221L17.5347 9.41992Z" fill="black"/>
<path d="M17.9033 5.36133L16.7967 4.25473L17.5345 3.51699L18.6411 4.62358L17.9033 5.36133Z" fill="black"/>
<path d="M19.749 7.20703L18.6424 6.10043L19.3802 5.36269L20.4868 6.46929L19.749 7.20703Z" fill="black"/>
<path d="M4.25391 16.7949L7.20485 19.7459L6.4671 20.4836L3.51616 17.5327L4.25391 16.7949Z" fill="black"/>
<path d="M7.20459 17.5312L8.31119 18.6378L7.57348 19.3756L6.46688 18.269L7.20459 17.5312Z" fill="black"/>
<path d="M5.36035 15.6855L6.46695 16.7921L5.72921 17.5299L4.62261 16.4233L5.36035 15.6855Z" fill="black"/>
<path d="M6.4668 14.5801L9.41774 17.531L8.68 18.2688L5.72905 15.3178L6.4668 14.5801Z" fill="black"/>
<path d="M7.20459 4.25195L4.25365 7.20289L3.51591 6.46515L6.46685 3.51421L7.20459 4.25195Z" fill="black"/>
<path d="M8.31152 5.35938L5.36058 8.31032L4.62284 7.57257L7.57378 4.62163L8.31152 5.35938Z" fill="black"/>
<path d="M9.41895 6.4668L6.468 9.41774L5.73029 8.68003L8.68123 5.72909L9.41895 6.4668Z" fill="black"/>
</g>
<defs>
<clipPath id="clip0_4018_24681">
<rect width="24" height="24" fill="white"/>
</clipPath>
</defs>
</svg>
