<svg width="24" height="24" viewBox="0 0 24 24" fill="none" xmlns="http://www.w3.org/2000/svg">
<g clip-path="url(#clip0_4018_13047)">
<path d="M12 24C18.6274 24 24 18.6274 24 12C24 5.37258 18.6274 0 12 0C5.37258 0 0 5.37258 0 12C0 18.6274 5.37258 24 12 24Z" fill="#338AF3"/>
<path d="M18.7825 12.1309H5.21729C5.21729 13.0674 6.03296 13.8265 6.96938 13.8265H6.91294C6.91294 14.763 7.67208 15.5222 8.6086 15.5222C8.6086 16.4587 9.36774 17.2178 10.3043 17.2178H13.6956C14.6321 17.2178 15.3912 16.4587 15.3912 15.5222C16.3277 15.5222 17.0869 14.763 17.0869 13.8265H17.0304C17.9668 13.8265 18.7825 13.0674 18.7825 12.1309Z" fill="#FFDA44"/>
<path d="M16.6955 9.91211C16.6955 12.5054 14.5932 14.6078 11.9999 14.6078C9.4065 14.6078 7.3042 12.5054 7.3042 9.91211" fill="#338AF3"/>
<path d="M15.5864 9.91189L14.1208 10.6013L14.9012 12.0207L13.3098 11.7162L13.1082 13.3238L11.9997 12.1414L10.8912 13.3238L10.6896 11.7162L9.09821 12.0206L9.87859 10.6012L8.41309 9.91189L9.87863 9.22255L9.09821 7.80322L10.6896 8.10763L10.8913 6.5L11.9997 7.68242L13.1082 6.5L13.3098 8.10763L14.9013 7.80322L14.1209 9.22259L15.5864 9.91189Z" fill="#FFDA44"/>
</g>
<defs>
<clipPath id="clip0_4018_13047">
<rect width="24" height="24" fill="white"/>
</clipPath>
</defs>
</svg>
