<svg width="24" height="24" viewBox="0 0 24 24" fill="none" xmlns="http://www.w3.org/2000/svg">
<g clip-path="url(#clip0_4018_17378)">
<path d="M0.566381 8.34794C0.198787 9.49956 -0.000291007 10.7264 -0.000244132 12C-0.000291007 13.2736 0.198834 14.5005 0.566428 15.6521L11.9998 16.174L23.4331 15.6522C23.8006 14.5006 23.9998 13.2736 23.9998 12.0001C23.9998 10.7265 23.8007 9.49956 23.4331 8.34789L11.9998 7.82617L0.566381 8.34794Z" fill="#F0F0F0"/>
<path d="M23.4334 8.34789L12.0001 7.82617L0.566744 8.34789C0.457807 8.68933 0.36401 9.03747 0.2854 9.39138H23.7147C23.6361 9.03742 23.5424 8.68923 23.4334 8.34789Z" fill="#D80027"/>
<path d="M0.2854 14.6074C0.363916 14.9613 0.457713 15.3094 0.56665 15.6509L0.567775 15.6509L11.9999 16.1726L23.4333 15.6509C23.5422 15.3095 23.636 14.9613 23.7146 14.6074H0.2854Z" fill="#D80027"/>
<path d="M11.9997 24.0002C17.3536 24.0002 21.8878 20.4938 23.433 15.6523H0.566406C2.11164 20.4937 6.64595 24.0002 11.9997 24.0002Z" fill="#6DA544"/>
<path d="M11.9997 4.69973e-10C6.64595 4.68755e-05 2.11173 3.50644 0.566406 8.34783L23.433 8.34787C21.8879 3.50639 17.3536 -4.68745e-05 11.9997 4.69973e-10Z" fill="#338AF3"/>
<path d="M5.48376 4.95716C5.48376 3.83323 6.27365 2.89433 7.32848 2.66398C7.16638 2.62855 6.99815 2.60938 6.82537 2.60938C5.52871 2.60938 4.47754 3.6605 4.47754 4.9572C4.47754 6.25391 5.52862 7.30503 6.82537 7.30503C6.99815 7.30503 7.16634 7.28581 7.32848 7.25042C6.2737 7.01998 5.48376 6.08108 5.48376 4.95716Z" fill="#F0F0F0"/>
<path d="M8.71628 6.02539L8.87519 6.51453H9.3895L8.97344 6.81687L9.13234 7.30602L8.71628 7.00372L8.30012 7.30602L8.45908 6.81687L8.04297 6.51453H8.55728L8.71628 6.02539Z" fill="#F0F0F0"/>
<path d="M10.3578 6.02539L10.5167 6.51453H11.0311L10.6149 6.81687L10.7739 7.30602L10.3578 7.00372L9.94168 7.30602L10.1006 6.81687L9.68457 6.51453H10.1988L10.3578 6.02539Z" fill="#F0F0F0"/>
<path d="M11.999 6.02539L12.1579 6.51453H12.6723L12.2562 6.81687L12.4151 7.30602L11.999 7.00372L11.5828 7.30602L11.7418 6.81687L11.3257 6.51453H11.84L11.999 6.02539Z" fill="#F0F0F0"/>
<path d="M13.6408 6.02539L13.7998 6.51453H14.3141L13.898 6.81687L14.057 7.30602L13.6408 7.00372L13.2247 7.30602L13.3837 6.81687L12.9675 6.51453H13.4818L13.6408 6.02539Z" fill="#F0F0F0"/>
<path d="M15.2826 6.02539L15.4415 6.51453H15.9559L15.5398 6.81687L15.6987 7.30602L15.2826 7.00372L14.8665 7.30602L15.0254 6.81687L14.6094 6.51453H15.1236L15.2826 6.02539Z" fill="#F0F0F0"/>
<path d="M10.3578 4.31641L10.5167 4.8055H11.0311L10.6149 5.10789L10.7739 5.59698L10.3578 5.29469L9.94168 5.59698L10.1006 5.10789L9.68457 4.8055H10.1988L10.3578 4.31641Z" fill="#F0F0F0"/>
<path d="M11.999 4.31641L12.1579 4.8055H12.6723L12.2562 5.10789L12.4151 5.59698L11.999 5.29469L11.5828 5.59698L11.7418 5.10789L11.3257 4.8055H11.84L11.999 4.31641Z" fill="#F0F0F0"/>
<path d="M13.6408 4.31641L13.7998 4.8055H14.3141L13.898 5.10789L14.057 5.59698L13.6408 5.29469L13.2247 5.59698L13.3837 5.10789L12.9675 4.8055H13.4818L13.6408 4.31641Z" fill="#F0F0F0"/>
<path d="M15.2826 4.31641L15.4415 4.8055H15.9559L15.5398 5.10789L15.6987 5.59698L15.2826 5.29469L14.8665 5.59698L15.0254 5.10789L14.6094 4.8055H15.1236L15.2826 4.31641Z" fill="#F0F0F0"/>
<path d="M11.999 2.60938L12.1579 3.09856H12.6723L12.2562 3.40086L12.4151 3.89005L11.999 3.58775L11.5828 3.89005L11.7418 3.40086L11.3257 3.09856H11.84L11.999 2.60938Z" fill="#F0F0F0"/>
<path d="M13.6408 2.60938L13.7998 3.09856H14.3141L13.898 3.40086L14.057 3.89005L13.6408 3.58775L13.2247 3.89005L13.3837 3.40086L12.9675 3.09856H13.4818L13.6408 2.60938Z" fill="#F0F0F0"/>
<path d="M15.2826 2.60938L15.4415 3.09856H15.9559L15.5398 3.40086L15.6987 3.89005L15.2826 3.58775L14.8665 3.89005L15.0254 3.40086L14.6094 3.09856H15.1236L15.2826 2.60938Z" fill="#F0F0F0"/>
</g>
<defs>
<clipPath id="clip0_4018_17378">
<rect width="24" height="24" fill="white"/>
</clipPath>
</defs>
</svg>
