<svg width="24" height="24" viewBox="0 0 24 24" fill="none" xmlns="http://www.w3.org/2000/svg">
<path d="M23.6398 14.9031C22.037 21.3317 15.5259 25.2441 9.09651 23.641C2.66976 22.0382 -1.24261 15.5267 0.360888 9.09847C1.96289 2.6691 8.47401 -1.24365 14.9015 0.359098C21.3305 1.96185 25.2425 8.4741 23.6398 14.9031Z" fill="#517BE7"/>
<g clip-path="url(#clip0_4018_6306)">
<path d="M12.1184 3.43164L12.0034 3.8223V15.1574L12.1184 15.2722L17.38 12.162L12.1184 3.43164Z" fill="#BAC6F2"/>
<path d="M12.1186 3.43164L6.85693 12.162L12.1186 15.2722V9.77041V3.43164Z" fill="white"/>
<path d="M12.1185 16.2687L12.0537 16.3477V20.3855L12.1185 20.5747L17.3833 13.1602L12.1185 16.2687Z" fill="#BAC6F2"/>
<path d="M12.1186 20.5747V16.2687L6.85693 13.1602L12.1186 20.5747Z" fill="white"/>
<path d="M12.1187 15.2713L17.3802 12.1611L12.1187 9.76953V15.2713Z" fill="#7394EA"/>
<path d="M6.85693 12.1611L12.1186 15.2713V9.76953L6.85693 12.1611Z" fill="#BAC6F2"/>
</g>
<defs>
<clipPath id="clip0_4018_6306">
<rect width="10.5264" height="17.1429" fill="white" transform="translate(6.85693 3.42773)"/>
</clipPath>
</defs>
</svg>
