<svg width="24" height="24" viewBox="0 0 24 24" fill="none" xmlns="http://www.w3.org/2000/svg">
<path d="M9.00006 8.38086H13.6847C14.7231 8.38086 15.5655 9.31548 15.5655 10.2616C15.5655 11.3001 14.7231 12.1424 13.6847 12.1424H9.00006V8.38086Z" stroke="#212529" stroke-width="1.2" stroke-miterlimit="10" stroke-linecap="round" stroke-linejoin="round"/>
<path d="M9.00006 12.1309H14.3539C15.5424 12.1309 16.5001 12.9732 16.5001 14.0116C16.5001 15.0501 15.5424 15.8924 14.3539 15.8924H9.00006V12.1309Z" stroke="#212529" stroke-width="1.2" stroke-miterlimit="10" stroke-linecap="round" stroke-linejoin="round"/>
<path d="M12.2766 15.8809V17.7616" stroke="#212529" stroke-width="1.2" stroke-miterlimit="10" stroke-linecap="round" stroke-linejoin="round"/>
<path d="M9.93463 15.8809V17.7616" stroke="#212529" stroke-width="1.2" stroke-miterlimit="10" stroke-linecap="round" stroke-linejoin="round"/>
<path d="M12.2766 6.50195V8.38273" stroke="#212529" stroke-width="1.2" stroke-miterlimit="10" stroke-linecap="round" stroke-linejoin="round"/>
<path d="M9.93463 6.50195V8.38273" stroke="#212529" stroke-width="1.2" stroke-miterlimit="10" stroke-linecap="round" stroke-linejoin="round"/>
<path d="M10.777 8.38086H7.50006" stroke="#212529" stroke-width="1.2" stroke-miterlimit="10" stroke-linecap="round" stroke-linejoin="round"/>
<path d="M10.777 15.8809H7.50006" stroke="#212529" stroke-width="1.2" stroke-miterlimit="10" stroke-linecap="round" stroke-linejoin="round"/>
<path d="M11.9999 22.602C17.8541 22.602 22.5999 17.8562 22.5999 12.002C22.5999 6.14773 17.8541 1.40195 11.9999 1.40195C6.14566 1.40195 1.39988 6.14773 1.39988 12.002C1.39988 17.8562 6.14566 22.602 11.9999 22.602Z" stroke="#212529" stroke-width="1.2" stroke-miterlimit="10"/>
</svg>
