<svg width="30" height="30" viewBox="0 0 30 30" fill="none" xmlns="http://www.w3.org/2000/svg">
<g clip-path="url(#clip0_2270_26229)">
<path d="M28.7882 13.7871H1.21184C0.542578 13.7871 0 14.3296 0 14.9989C0 15.6683 0.542578 16.2108 1.21184 16.2108H28.7882C29.4575 16.2108 30 15.6683 30 14.9989C30 14.3297 29.4575 13.7871 28.7882 13.7871Z" fill="white"/>
<path d="M28.7882 4.5957H1.21184C0.542578 4.5957 0 5.13828 0 5.80754C0 6.4768 0.542578 7.01937 1.21184 7.01937H28.7882C29.4575 7.01937 30 6.4768 30 5.80754C30 5.13828 29.4575 4.5957 28.7882 4.5957Z" fill="white"/>
<path d="M28.7882 22.9805H1.21184C0.542578 22.9805 0 23.523 0 24.1923C0 24.8616 0.542578 25.4041 1.21184 25.4041H28.7882C29.4575 25.4041 30 24.8616 30 24.1923C30 23.523 29.4575 22.9805 28.7882 22.9805Z" fill="white"/>
</g>
<defs>
<clipPath id="clip0_2270_26229">
<rect width="30" height="30" fill="white"/>
</clipPath>
</defs>
</svg>
