<svg width="24" height="24" viewBox="0 0 24 24" fill="none" xmlns="http://www.w3.org/2000/svg">
<g clip-path="url(#clip0_3823_11916)">
<path d="M6 9.73771C6 10.5974 6.66468 11.2886 7.48001 11.2886H9.14609C9.85507 11.2886 10.4311 10.686 10.4311 9.93269C10.4311 9.12622 10.0766 8.83377 9.55377 8.64766L6.88623 7.71712C6.36335 7.53101 6.00887 7.24742 6.00887 6.4321C6.00887 5.68767 6.5849 5.07617 7.29388 5.07617H8.95999C9.77532 5.07617 10.44 5.76743 10.44 6.62707" stroke="#212529" stroke-width="1.184" stroke-linecap="round" stroke-linejoin="round"/>
<path d="M8.216 4.19922V12.1753" stroke="#212529" stroke-width="0.888" stroke-linecap="round" stroke-linejoin="round"/>
<path d="M11.9995 22.6C17.8537 22.6 22.5995 17.8542 22.5995 12C22.5995 6.14578 17.8537 1.4 11.9995 1.4C6.14529 1.4 1.39951 6.14578 1.39951 12C1.39951 17.8542 6.14529 22.6 11.9995 22.6Z" stroke="#212529" stroke-width="1.2" stroke-miterlimit="10"/>
<path d="M13.3176 16.982C13.4932 16.982 13.6356 17.1244 13.6356 17.3V17.4083C13.6356 17.5839 13.4932 17.7263 13.3176 17.7263H9.61767C9.44205 17.7263 9.29967 17.5839 9.29967 17.4083V17.3C9.29967 17.1244 9.44205 16.982 9.61767 16.982H13.3176ZM13.3176 18.4356C13.4932 18.4356 13.6356 18.578 13.6356 18.7536V18.8569C13.6356 19.0326 13.4932 19.1749 13.3176 19.1749H9.61767C9.44205 19.1749 9.29967 19.0326 9.29967 18.8569V18.7536C9.29967 18.578 9.44205 18.4356 9.61767 18.4356H13.3176ZM11.2124 17.339C11.1933 17.2696 11.1983 17.1957 11.2266 17.1295L12.7388 13.5934C12.7889 13.4763 12.9039 13.4004 13.0312 13.4004H13.646C13.8799 13.4004 14.0337 13.6443 13.933 13.8553L12.1485 17.5952C12.0957 17.7058 11.984 17.7763 11.8615 17.7763H11.5751C11.4319 17.7763 11.3064 17.6806 11.2685 17.5426L11.2124 17.339ZM9.98386 13.4004C10.1112 13.4004 10.2263 13.4764 10.2763 13.5935L11.7997 17.1603C11.8303 17.2321 11.8335 17.3126 11.8086 17.3866L11.7503 17.5597C11.7068 17.6891 11.5855 17.7763 11.4489 17.7763H11.1483C11.026 17.7763 10.9145 17.7061 10.8616 17.5957L9.06848 13.8559C8.96727 13.6448 9.12113 13.4004 9.35522 13.4004H9.98386ZM11.789 16.8471C11.9647 16.8471 12.107 16.9895 12.107 17.1651V20.3555C12.107 20.5312 11.9647 20.6735 11.789 20.6735H11.1762C11.0006 20.6735 10.8582 20.5312 10.8582 20.3555V17.1651C10.8582 16.9895 11.0006 16.8471 11.1762 16.8471H11.789Z" fill="#212529"/>
<path d="M17.8392 13.9895C18.0325 13.9895 18.2205 13.9752 18.4031 13.9466C18.4222 13.9436 18.4412 13.9404 18.46 13.9371C18.7051 13.8942 18.9573 14.0462 18.993 14.2925L19.0281 14.5348C19.0575 14.7372 18.9281 14.9299 18.7267 14.9653C18.6296 14.9824 18.5307 14.9973 18.43 15.0101C18.2044 15.0387 17.9752 15.0531 17.7425 15.0531C17.302 15.0531 16.8974 14.9886 16.5286 14.8597C16.1633 14.7308 15.8464 14.5392 15.5778 14.285C15.3093 14.0271 15.0998 13.7084 14.9494 13.3289C14.8026 12.9457 14.7292 12.4999 14.7292 11.9914V10.1705C14.7292 9.64773 14.8026 9.19117 14.9494 8.80085C15.0998 8.40696 15.3111 8.07752 15.5832 7.81253C15.8589 7.54755 16.183 7.34881 16.5554 7.21632C16.9314 7.08382 17.3468 7.01758 17.8016 7.01758C18.0236 7.01758 18.2384 7.03369 18.4461 7.06592C18.5393 7.07855 18.6325 7.09328 18.7256 7.11009C18.9273 7.14648 19.0575 7.33951 19.0282 7.54236L18.9923 7.7915C18.9569 8.0369 18.7063 8.19016 18.4626 8.14455C18.4447 8.1412 18.4267 8.13795 18.4085 8.13481C18.2259 8.10258 18.0415 8.08647 17.8553 8.08647C17.5795 8.08647 17.3307 8.12765 17.1087 8.21001C16.8902 8.29237 16.704 8.4177 16.55 8.586C16.3961 8.75072 16.2779 8.96378 16.1955 9.22519C16.1168 9.48659 16.0774 9.79813 16.0774 10.1598V11.9914C16.0774 12.3495 16.1185 12.6557 16.2009 12.9099C16.2868 13.1606 16.4068 13.3665 16.5608 13.5276C16.7148 13.6852 16.8992 13.8015 17.114 13.8767C17.3325 13.9519 17.5742 13.9895 17.8392 13.9895ZM17.6324 9.92346C17.8356 9.92346 18.0003 10.0882 18.0003 10.2914C18.0003 10.4946 17.8356 10.6593 17.6324 10.6593H14.1679C13.9647 10.6593 13.7999 10.4946 13.7999 10.2914C13.7999 10.0882 13.9647 9.92346 14.1679 9.92346H17.6324ZM17.6324 11.363C17.8356 11.363 18.0003 11.5277 18.0003 11.7309C18.0003 11.9341 17.8356 12.0988 17.6324 12.0988H14.1679C13.9647 12.0988 13.7999 11.9341 13.7999 11.7309C13.7999 11.5277 13.9647 11.363 14.1679 11.363H17.6324Z" fill="#212529"/>
</g>
<defs>
<clipPath id="clip0_3823_11916">
<rect width="24" height="24" fill="white"/>
</clipPath>
</defs>
</svg>
