<svg width="32" height="32" viewBox="0 0 32 32" fill="none" xmlns="http://www.w3.org/2000/svg">
<g clip-path="url(#clip0_2270_26923)">
<g opacity="0.34" filter="url(#filter0_f_2270_26923)">
<path d="M6 20.9959H13.9967C15.101 20.9959 15.9963 20.1008 15.9967 18.9965L15.9998 8.82859C15.9999 8.33317 15.8162 7.85532 15.4842 7.48762L13.8371 5.66355C13.4537 5.23892 12.9068 4.99883 12.3347 5.00399L5.98198 5.06123C4.88449 5.07111 4 5.9636 4 7.06114V18.9959C4 20.1005 4.89543 20.9959 6 20.9959Z" fill="black"/>
</g>
<path d="M6 18.9953H16.996C17.5482 18.9953 17.9958 18.5478 17.996 17.9956L17.9999 3.99165C18 3.75957 17.9193 3.5347 17.7717 3.35557L15.3076 0.36419C15.1154 0.130917 14.8281 -0.00293602 14.5259 4.88817e-05L5.99012 0.084355C5.44172 0.0897714 5 0.535875 5 1.08431V17.9953C5 18.5476 5.44772 18.9953 6 18.9953Z" fill="url(#paint0_linear_2270_26923)"/>
<path d="M15 4.99609H8C7.44772 4.99609 7 5.44381 7 5.99609V15.9961C7 16.5484 7.44772 16.9961 8 16.9961H15C15.5523 16.9961 16 16.5484 16 15.9961V5.99609C16 5.44381 15.5523 4.99609 15 4.99609Z" fill="url(#paint1_linear_2270_26923)"/>
<g opacity="0.34" filter="url(#filter1_f_2270_26923)">
<path fill-rule="evenodd" clip-rule="evenodd" d="M14.5 8.99609C10.3579 8.99609 7 12.354 7 16.4961C7 20.6382 10.3579 23.9961 14.5 23.9961H18.9927C19.7213 23.9961 20.3922 24.3923 20.744 25.0302L21.6296 26.6359C21.9917 27.2923 22.8332 27.3026 23.2076 26.655L26.213 21.4574C26.2209 21.4436 26.2093 21.4268 26.1936 21.4294C26.1762 21.4323 26.1647 21.4118 26.1762 21.3984C27.3126 20.0838 28 18.3702 28 16.4961C28 12.354 24.6421 8.99609 20.5 8.99609H14.5Z" fill="black"/>
</g>
<path fill-rule="evenodd" clip-rule="evenodd" d="M15.5 6.99609C11.3579 6.99609 8 10.354 8 14.4961C8 18.6382 11.3579 21.9961 15.5 21.9961H20.0554L21.7735 24.7217C22.162 25.3381 23.065 25.3477 23.4668 24.7397L26.6052 19.9904C28.0784 18.6209 29 16.6661 29 14.4961C29 10.354 25.6421 6.99609 21.5 6.99609H15.5Z" fill="url(#paint2_linear_2270_26923)"/>
<path d="M13.3675 16.9954V16.0434H14.0325V15.4204H13.3675V12.1094H12.3315L10.3505 15.3644V16.0434H12.6185V16.9954H13.3675ZM12.5695 12.8304H12.6185V15.4204H11.0225L12.5695 12.8304ZM16.4167 17.0794C17.4527 17.0794 18.1317 16.4004 18.1317 15.4204C18.1317 14.4964 17.5227 13.9084 16.6967 13.9084C16.0877 13.9084 15.7657 14.2374 15.5627 14.6224L15.5137 14.6084C15.7517 13.5584 16.3887 12.9144 17.4947 12.1094H16.4447C15.6397 12.6414 14.6947 13.7614 14.6947 15.1754C14.6947 16.3444 15.3387 17.0794 16.4167 17.0794ZM16.4167 16.4354C15.8497 16.4354 15.5137 16.1204 15.5137 15.5394V15.4414C15.5137 14.8604 15.8497 14.5454 16.4167 14.5454C16.9837 14.5454 17.3197 14.8604 17.3197 15.4414V15.5394C17.3197 16.1204 16.9837 16.4354 16.4167 16.4354ZM22.056 12.1094H19.284L19.102 14.8324L19.753 14.9234C19.928 14.7274 20.159 14.5384 20.579 14.5384C21.153 14.5384 21.482 14.8744 21.482 15.4344V15.5184C21.482 16.0784 21.153 16.4144 20.579 16.4144C20.033 16.4144 19.76 16.1344 19.522 15.7494L18.948 16.2044C19.242 16.6524 19.697 17.0794 20.565 17.0794C21.671 17.0794 22.308 16.3864 22.308 15.4134C22.308 14.4544 21.671 13.8874 20.831 13.8874C20.271 13.8874 20.026 14.1394 19.809 14.5244H19.76L19.886 12.7954H22.056V12.1094ZM24.0343 14.1184V14.7904H24.5523C25.1683 14.7904 25.5183 15.0634 25.5183 15.5604V15.6094C25.5183 16.1134 25.1893 16.4144 24.5943 16.4144C24.0273 16.4144 23.7403 16.1414 23.5023 15.7494L22.9213 16.2044C23.2293 16.6524 23.6843 17.0794 24.5943 17.0794C25.6373 17.0794 26.3373 16.5054 26.3373 15.6514C26.3373 14.9444 25.8683 14.5454 25.3153 14.4404V14.4054C25.8263 14.2934 26.2533 13.9084 26.2533 13.2854C26.2533 12.4944 25.5883 12.0254 24.6643 12.0254C23.8523 12.0254 23.4043 12.4034 23.1103 12.8304L23.6353 13.2854C23.8593 12.9144 24.1813 12.6904 24.6433 12.6904C25.1123 12.6904 25.4203 12.9424 25.4203 13.3834V13.4324C25.4203 13.8314 25.1333 14.1184 24.5313 14.1184H24.0343Z" fill="url(#paint3_linear_2270_26923)"/>
</g>
<defs>
<filter id="filter0_f_2270_26923" x="0" y="1.00391" width="19.9998" height="23.9922" filterUnits="userSpaceOnUse" color-interpolation-filters="sRGB">
<feFlood flood-opacity="0" result="BackgroundImageFix"/>
<feBlend mode="normal" in="SourceGraphic" in2="BackgroundImageFix" result="shape"/>
<feGaussianBlur stdDeviation="2" result="effect1_foregroundBlur_2270_26923"/>
</filter>
<filter id="filter1_f_2270_26923" x="3" y="4.99609" width="29" height="26.1387" filterUnits="userSpaceOnUse" color-interpolation-filters="sRGB">
<feFlood flood-opacity="0" result="BackgroundImageFix"/>
<feBlend mode="normal" in="SourceGraphic" in2="BackgroundImageFix" result="shape"/>
<feGaussianBlur stdDeviation="2" result="effect1_foregroundBlur_2270_26923"/>
</filter>
<linearGradient id="paint0_linear_2270_26923" x1="14.75" y1="18.1291" x2="13.3548" y2="0.480454" gradientUnits="userSpaceOnUse">
<stop stop-color="#E2C299"/>
<stop offset="1" stop-color="#C5A67C"/>
</linearGradient>
<linearGradient id="paint1_linear_2270_26923" x1="15.7299" y1="5.63003" x2="4.96844" y2="13.4566" gradientUnits="userSpaceOnUse">
<stop stop-color="#EBDAC5"/>
<stop offset="1" stop-color="#E1CFB7"/>
</linearGradient>
<linearGradient id="paint2_linear_2270_26923" x1="28.6367" y1="16.7265" x2="6.83225" y2="16.7265" gradientUnits="userSpaceOnUse">
<stop stop-color="#DEDEDE"/>
<stop offset="1" stop-color="#787878"/>
</linearGradient>
<linearGradient id="paint3_linear_2270_26923" x1="26.375" y1="15.4954" x2="11.9375" y2="15.4954" gradientUnits="userSpaceOnUse">
<stop stop-color="#A4A4A4"/>
<stop offset="1" stop-color="#272727"/>
</linearGradient>
<clipPath id="clip0_2270_26923">
<rect width="32" height="32" fill="white" transform="translate(0 -0.00390625)"/>
</clipPath>
</defs>
</svg>
